<svg width="328" height="478" viewBox="0 0 328 478" fill="none" xmlns="http://www.w3.org/2000/svg">
<path fill-rule="evenodd" clip-rule="evenodd" d="M277.388 379.516C305.888 333.516 322.888 297.516 326.888 201.516C331.888 81.5162 293.388 32.5162 203.388 6.01619C113.388 -20.4838 37.8883 47.5162 23.8883 75.0162C23.1663 76.4344 22.4217 77.8699 21.6617 79.3351C7.68463 106.281 -11.5029 143.272 8.88831 267.516C13.555 295.35 22.3883 339.516 51.8883 383.016C69.3883 408.821 109.488 440.816 167.888 438.016C231.388 434.972 263.388 397.016 277.388 379.516ZM134.888 258.516C168.888 248.016 156.388 202.516 134.888 200.016L81.8883 189.516C14.3883 184.516 24.8883 275.016 77.3883 269.516L134.888 258.516ZM196.888 258.516C158.888 249.516 169.388 205.516 194.388 200.016L247.388 189.516C312.388 181.516 307.888 278.016 247.388 269.516L196.888 258.516ZM152.388 387.016C85.8883 387.016 98.8883 302.516 145.388 302.516H182.388C234.388 302.516 234.888 387.016 187.388 387.016H152.388Z" fill="white"/>
<path d="M47.8883 405.016C43.555 415.016 31.6883 436.516 18.8883 442.516C126.83 485.378 189.515 493.121 309.888 442.516C301.722 436.016 283.588 414.916 280.388 400.516C216.388 467.016 120.388 470.016 47.8883 405.016Z" fill="white"/>
</svg>
