<svg width="458" height="479" viewBox="0 0 458 479" fill="none" xmlns="http://www.w3.org/2000/svg">
<path fill-rule="evenodd" clip-rule="evenodd" d="M73 377.5H41.5C37 377.667 26.8 374.1 22 358.5L0 215C23.6667 159.333 75.1 49.2 91.5 54L230 114.5L366 54C375.667 59.8334 407.6 100.2 458 215L435 358.5C433.5 363.667 428 374.7 418 377.5H385.5V124C385.5 115 369.5 113.5 369.5 124V417.5C369.167 424 365.5 438.1 353.5 442.5H109C101.667 441 91.5 434 91.5 417.5V124C91.5 114 73 113 73 124V377.5ZM115.12 341.688C111.841 342.555 109 345.311 109 348.703V417C109 420.314 111.686 423 115 423H343C346.314 423 349 420.314 349 417V347.797C349 344.771 346.727 342.265 343.818 341.433C322.132 335.235 303.873 308.514 295.677 292.436C294.617 290.356 292.507 289 290.172 289H167.381C165.019 289 162.882 290.398 161.867 292.53C145.838 326.22 126.725 338.621 115.12 341.688Z" fill="white"/>
<path d="M123.5 406.5H334V355C324.5 352.833 301.4 339.7 285 304.5H173.5C165.333 320.667 143.9 353.4 123.5 355V406.5Z" fill="white"/>
<path d="M38.5 394V411H73V394H38.5Z" fill="white"/>
<path d="M107 459.5V478.5H351.5V459.5H107Z" fill="white"/>
<path d="M385.5 394V411H420V394H385.5Z" fill="white"/>
<path d="M198.5 82.5L128 0.5C117.667 1 97.5 9.4 99.5 39L198.5 82.5Z" fill="white"/>
<path d="M230 92L303 7C278.667 18.5 215.1 34.6 155.5 7L230 92Z" fill="white"/>
<path d="M260 82.5L359.5 39C361.167 28.3333 357.8 5.7 331 0.5L260 82.5Z" fill="white"/>
</svg>
