<svg width="334" height="495" viewBox="0 0 334 495" fill="none" xmlns="http://www.w3.org/2000/svg">
  <path fill-rule="evenodd" clip-rule="evenodd" d="M58.824 8.27878V16.5576H167.241H275.658V8.27878V0H167.241H58.824V8.27878ZM51.7643 71.9219C48.8063 93.2657 46.646 110.996 46.9637 111.322C47.9773 112.362 68.9214 96.8587 69.4337 94.6886C69.703 93.5503 71.5113 81.4425 73.4517 67.7825C76.7344 44.6796 77.161 42.7837 79.5573 40.6178C82.3671 38.0772 86.6473 37.6312 89.1676 39.6161C93.3913 42.9431 93.3852 44.1125 88.9971 74.2452C86.2227 93.2915 84.258 103.783 83.1648 105.387C82.2581 106.718 72.8929 113.947 62.3538 121.453L43.1918 135.1L38.4487 171.293C19.8887 312.938 -0.925277 481.391 0.0318165 482.224C1.42258 483.434 75.2499 495.815 75.9669 494.957C76.3431 494.508 95.367 419.631 118.242 328.564C141.118 237.498 160.486 161.949 161.281 160.677C164.273 155.896 171.646 157.146 173.71 162.784C174.168 164.035 193.056 239.102 215.683 329.599C238.31 420.097 257.126 494.503 257.497 494.948C258.042 495.6 332.803 483.597 333.991 482.667C334.521 482.251 311.924 301.72 295.677 176.578L290.321 135.321L270.862 121.397C260.16 113.739 250.788 106.46 250.037 105.22C249.287 103.982 246.775 90.0038 244.457 74.1603C240.512 47.2015 240.346 45.1908 241.867 42.8096C245.245 37.5184 251.953 37.0207 255.026 41.8337C255.997 43.3539 258.061 54.315 260.371 70.2289C262.442 84.484 264.346 96.3309 264.602 96.5565C268.057 99.5917 286.117 111.725 286.537 111.294C286.849 110.974 284.67 93.2522 281.695 71.9137L276.284 33.1151H166.713H57.1428L51.7643 71.9219Z" fill="white"/>
</svg>
