<svg width="511" height="261" viewBox="0 0 511 261" fill="none" xmlns="http://www.w3.org/2000/svg">
<path d="M511 198.268H1.5L0 69.768C1.5 41.768 33.5 51.268 36.5 61.768C38.7149 69.5201 61.5 113.71 102 115.268C154 117.268 166.549 93.9775 177.5 78.768C186.5 66.268 189 35.268 189.5 20.2681C191.5 -4.73199 219.5 -2.732 227.5 5.76806L262 34.2681L223.5 73.268L245 93.768L285.5 53.2681L302.5 68.768L266 104.768L287.5 126.268L326 87.768L343.5 102.768L308.5 137.268L330 158.768L367.5 121.768C386 137.768 416.5 149.768 461 149.768C494.638 149.768 511 182.268 511 198.268Z" fill="white"/>
<path d="M511 229.268H1.5C5.9 250.068 26.6667 258.601 36.5 260.268C166.5 260.435 434.3 260.668 465.5 260.268C496.7 259.868 508.833 239.435 511 229.268Z" fill="white"/>
</svg>
