<svg xmlns="http://www.w3.org/2000/svg" fill="none" width="24px" height="24px" viewBox="0 0 24 24">
  <path fill="#fff"  d="m10.469 5.05-.564-.178.039.59c.004.09.17 2.28 3.293 6.295l.085.11 3.927 5.007.016-.013a.86.86 0 0 0 .258.315l.799.624a.823.823 0 0 0 .162.648l.368.47a.813.813 0 0 0 1.142.139l1.28-1.004a.813.813 0 0 0 .138-1.142l-.368-.47a.823.823 0 0 0-.591-.312l-.415-.925a.86.86 0 0 0-.245-.325l.016-.012-3.927-5.008-.085-.109c-3.155-3.99-5.242-4.674-5.328-4.7ZM5.096 6.132 4.6 6.015l-.004.509c0 .1.026 2.235 2.606 5.997l-.007.098 2.229 2.842.501.64 2.886 3.68.02-.016a.913.913 0 0 0 .297.36l.927.67a.82.82 0 0 0 .136.745l.502.64a.813.813 0 0 0 1.142.139l1.92-1.506a.813.813 0 0 0 .137-1.142l-.501-.64a.82.82 0 0 0-.693-.31l-.428-1.06a.913.913 0 0 0-.278-.375l.019-.015-2.886-3.68-.502-.64-2.228-2.84-.096-.018C7.26 6.69 5.193 6.155 5.096 6.133Z"/>
</svg>
