<svg xmlns="http://www.w3.org/2000/svg" fill="none" viewBox="0 0 15 14">
  <g clip-path="url(#a)">
    <path fill="#fff" fill-opacity=".6" d="M14.56 4.308v-.189c0-1.977-.79-3.58-1.764-3.58-.975 0-1.765 1.603-1.765 3.58 0 .063-.003.458 0 .189h3.529Z"/>
    <path fill="#fff" fill-opacity=".68" d="M14.973 12.552H10.67V7.269c0-.5.027-1 .083-1.497l.108-.974c.014-.121.105-.212.214-.212h3.493c.108 0 .2.09.213.212l.109.974c.055.496.083.996.083 1.497v5.283Z"/>
    <path fill="#fff" fill-opacity=".44" d="M14.758 14h-3.873c-.119 0-.215-.108-.215-.241 0-.134.096-.242.215-.242h3.873c.118 0 .215.108.215.242 0 .133-.097.241-.215.241Z"/>
    <path fill="#fff" fill-opacity=".44" d="M14.542 13.034H11.1v.483h3.442v-.482Zm-1.721-.482H10.67l.43.482h3.442l.43-.482h-2.15ZM11.25 4.308c-.006.158-.15.115-.15.278h3.442c0-.163-.198-.12-.204-.278H11.25Z"/>
  </g>
  <g clip-path="url(#b)">
    <path fill="#fff" fill-opacity=".6" d="M9.266 4.308v-.189c0-1.977-.79-3.58-1.764-3.58-.975 0-1.765 1.603-1.765 3.58 0 .063-.003.458 0 .189h3.529Z"/>
    <path fill="#fff" fill-opacity=".68" d="M9.679 12.552H5.376V7.269c0-.5.027-1 .083-1.497l.108-.974c.014-.121.105-.212.214-.212h3.493c.108 0 .2.09.213.212l.109.974c.055.496.083.996.083 1.497v5.283Z"/>
    <path fill="#fff" fill-opacity=".44" d="M9.463 14H5.591c-.12 0-.215-.108-.215-.241 0-.134.096-.242.215-.242h3.873c.118 0 .215.108.215.242 0 .133-.097.241-.216.241Z"/>
    <path fill="#fff" fill-opacity=".44" d="M9.248 13.034H5.806v.483h3.442v-.482Zm-1.721-.482H5.376l.43.482h3.442l.43-.482h-2.15ZM5.956 4.308c-.006.158-.15.115-.15.278h3.442c0-.163-.198-.12-.204-.278H5.956Z"/>
  </g>
  <g clip-path="url(#c)">
    <path fill="#fff" fill-opacity=".6" d="M3.971 4.308c.002-.063.002-.126.002-.189 0-1.977-.79-3.58-1.765-3.58-.975 0-1.765 1.603-1.765 3.58l-.001.189h3.53Z"/>
    <path fill="#fff" fill-opacity=".68" d="M4.385 12.552H.08V7.269c0-.5.028-1 .084-1.497l.108-.974c.013-.121.105-.212.213-.212H3.98c.109 0 .2.09.214.212l.108.974c.056.496.083.996.083 1.497v5.283Z"/>
    <path fill="#fff" fill-opacity=".44" d="M4.17 14H.296c-.12 0-.216-.108-.216-.241 0-.134.097-.242.216-.242h3.872c.12 0 .216.108.216.242 0 .133-.097.241-.216.241Z"/>
    <path fill="#fff" fill-opacity=".44" d="M3.954 13.034H.512v.483h3.442v-.482Zm-1.721-.482H.081l.43.482h3.443l.43-.482h-2.15ZM.662 4.308c-.006.158-.15.115-.15.278h3.442c0-.163-.198-.12-.204-.278H.662Z"/>
  </g>
  <defs>
    <clipPath id="a">
      <path fill="#fff" d="M0 0h4.412v14H0z" transform="translate(10.588)"/>
    </clipPath>
    <clipPath id="b">
      <path fill="#fff" d="M0 0h4.412v14H0z" transform="translate(5.294)"/>
    </clipPath>
    <clipPath id="c">
      <path fill="#fff" d="M0 0h4.412v14H0z"/>
    </clipPath>
  </defs>
</svg>
